<svg xmlns="http://www.w3.org/2000/svg" xmlns:xlink="http://www.w3.org/1999/xlink" width="524" zoomAndPan="magnify" viewBox="0 0 392.88 123.750003" height="165" preserveAspectRatio="xMidYMid meet" version="1.0"><defs><g/><clipPath id="766c4edc0a"><path d="M 0.335938 0 L 392.425781 0 L 392.425781 123.5 L 0.335938 123.5 Z M 0.335938 0 " clip-rule="nonzero"/></clipPath><clipPath id="a15b8c5d10"><path d="M 298.675781 73.109375 L 311.167969 73.109375 L 311.167969 85.601562 L 298.675781 85.601562 Z M 298.675781 73.109375 " clip-rule="nonzero"/></clipPath><clipPath id="6764de834f"><path d="M 304.921875 73.109375 C 301.472656 73.109375 298.675781 75.90625 298.675781 79.355469 C 298.675781 82.804688 301.472656 85.601562 304.921875 85.601562 C 308.375 85.601562 311.167969 82.804688 311.167969 79.355469 C 311.167969 75.90625 308.375 73.109375 304.921875 73.109375 Z M 304.921875 73.109375 " clip-rule="nonzero"/></clipPath></defs><g clip-path="url(#766c4edc0a)"><path fill="#ffffff" d="M 0.335938 0 L 392.542969 0 L 392.542969 123.5 L 0.335938 123.5 Z M 0.335938 0 " fill-opacity="1" fill-rule="nonzero"/></g><g fill="#000000" fill-opacity="1"><g transform="translate(94.878256, 84.04341)"><g><path d="M 3.125 -45.296875 L 3.125 -52.375 L 13.28125 -52.375 L 13.28125 -45.296875 Z M 5.28125 4.984375 C 3.070312 4.984375 1.640625 4.734375 0.984375 4.234375 L 0.984375 -2.546875 C 1.179688 -2.472656 1.488281 -2.4375 1.90625 -2.4375 C 2.414062 -2.4375 2.742188 -2.597656 2.890625 -2.921875 C 3.046875 -3.253906 3.125 -3.75 3.125 -4.40625 L 3.125 -42.453125 L 13.28125 -42.453125 L 13.28125 -4.703125 C 13.28125 -1.566406 12.640625 0.828125 11.359375 2.484375 C 10.085938 4.148438 8.0625 4.984375 5.28125 4.984375 Z M 5.28125 4.984375 "/></g></g></g><g fill="#000000" fill-opacity="1"><g transform="translate(108.09826, 84.04341)"><g><path d="M 10.203125 0.46875 C 7.035156 0.46875 4.859375 -0.476562 3.671875 -2.375 C 2.492188 -4.269531 1.90625 -7.09375 1.90625 -10.84375 L 1.90625 -42.453125 L 12.125 -42.453125 L 12.125 -12.875 C 12.125 -12.601562 12.125 -11.878906 12.125 -10.703125 C 12.125 -9.523438 12.304688 -8.691406 12.671875 -8.203125 C 13.035156 -7.722656 13.609375 -7.484375 14.390625 -7.484375 C 15.429688 -7.484375 16.085938 -7.914062 16.359375 -8.78125 C 16.628906 -9.65625 16.765625 -10.90625 16.765625 -12.53125 L 16.765625 -12.875 L 16.8125 -42.453125 L 26.90625 -42.453125 L 26.90625 0 L 16.765625 0 L 16.765625 -4.53125 C 16.066406 -2.75 15.253906 -1.46875 14.328125 -0.6875 C 13.398438 0.0820312 12.023438 0.46875 10.203125 0.46875 Z M 10.203125 0.46875 "/></g></g></g><g fill="#000000" fill-opacity="1"><g transform="translate(135.002563, 84.04341)"><g><path d="M 13.6875 0.46875 C 5.300781 0.46875 1.109375 -3.785156 1.109375 -12.296875 L 1.15625 -15.65625 L 11.3125 -15.65625 L 11.375 -10.671875 C 11.375 -9.660156 11.566406 -8.894531 11.953125 -8.375 C 12.335938 -7.851562 12.972656 -7.59375 13.859375 -7.59375 C 15.210938 -7.59375 15.890625 -8.695312 15.890625 -10.90625 C 15.890625 -12.53125 15.570312 -13.804688 14.9375 -14.734375 C 14.300781 -15.660156 13.285156 -16.644531 11.890625 -17.6875 L 6.5 -21.859375 C 4.644531 -23.296875 3.3125 -24.773438 2.5 -26.296875 C 1.6875 -27.828125 1.28125 -29.984375 1.28125 -32.765625 C 1.28125 -34.929688 1.847656 -36.773438 2.984375 -38.296875 C 4.128906 -39.828125 5.644531 -40.976562 7.53125 -41.75 C 9.425781 -42.53125 11.535156 -42.921875 13.859375 -42.921875 C 22.097656 -42.921875 26.21875 -38.820312 26.21875 -30.625 L 26.21875 -29.8125 L 15.71875 -29.8125 L 15.71875 -31.4375 C 15.71875 -32.4375 15.550781 -33.296875 15.21875 -34.015625 C 14.894531 -34.734375 14.347656 -35.09375 13.578125 -35.09375 C 12.878906 -35.09375 12.34375 -34.890625 11.96875 -34.484375 C 11.601562 -34.078125 11.421875 -33.523438 11.421875 -32.828125 C 11.421875 -31.285156 12.019531 -30.085938 13.21875 -29.234375 L 19.484375 -24.65625 C 21.734375 -22.988281 23.457031 -21.175781 24.65625 -19.21875 C 25.851562 -17.269531 26.453125 -14.804688 26.453125 -11.828125 C 26.453125 -7.890625 25.328125 -4.851562 23.078125 -2.71875 C 20.835938 -0.59375 17.707031 0.46875 13.6875 0.46875 Z M 13.6875 0.46875 "/></g></g></g><g fill="#000000" fill-opacity="1"><g transform="translate(160.515252, 84.04341)"><g><path d="M 10.78125 0.46875 C 8.113281 0.46875 6.273438 -0.09375 5.265625 -1.21875 C 4.265625 -2.34375 3.765625 -4.140625 3.765625 -6.609375 L 3.765625 -33.125 L 0.921875 -33.125 L 0.921875 -40.828125 L 3.765625 -40.828125 L 3.765625 -49.828125 L 13.625 -49.828125 L 13.625 -40.828125 L 16.53125 -40.828125 L 16.53125 -33.125 L 13.625 -33.125 L 13.625 -9.28125 C 13.625 -8.539062 13.679688 -8 13.796875 -7.65625 C 13.921875 -7.3125 14.234375 -7.140625 14.734375 -7.140625 C 15.117188 -7.140625 15.484375 -7.15625 15.828125 -7.1875 C 16.179688 -7.226562 16.414062 -7.25 16.53125 -7.25 L 16.53125 -0.296875 C 15.945312 -0.140625 15.101562 0.0234375 14 0.203125 C 12.90625 0.378906 11.832031 0.46875 10.78125 0.46875 Z M 10.78125 0.46875 "/></g></g></g><g fill="#000000" fill-opacity="1"><g transform="translate(176.170591, 84.04341)"><g><path d="M 14.796875 0.46875 C 10.148438 0.46875 6.800781 -0.707031 4.75 -3.0625 C 2.707031 -5.425781 1.6875 -9.046875 1.6875 -13.921875 L 1.6875 -27.03125 C 1.6875 -30.695312 2.082031 -33.679688 2.875 -35.984375 C 3.664062 -38.285156 5 -40.015625 6.875 -41.171875 C 8.75 -42.335938 11.347656 -42.921875 14.671875 -42.921875 C 18.304688 -42.921875 21.265625 -41.972656 23.546875 -40.078125 C 25.828125 -38.179688 26.96875 -35.53125 26.96875 -32.125 L 26.96875 -25.640625 L 16.640625 -25.640625 L 16.640625 -31.609375 C 16.640625 -32.734375 16.484375 -33.59375 16.171875 -34.1875 C 15.867188 -34.789062 15.273438 -35.09375 14.390625 -35.09375 C 12.722656 -35.09375 11.890625 -33.910156 11.890625 -31.546875 L 11.890625 -10.96875 C 11.890625 -10 12.09375 -9.175781 12.5 -8.5 C 12.90625 -7.820312 13.515625 -7.484375 14.328125 -7.484375 C 15.140625 -7.484375 15.75 -7.8125 16.15625 -8.46875 C 16.5625 -9.125 16.742188 -9.972656 16.703125 -11.015625 L 16.640625 -18.15625 L 26.96875 -18.15625 L 26.96875 -10.734375 C 26.96875 -7.253906 25.835938 -4.515625 23.578125 -2.515625 C 21.316406 -0.523438 18.390625 0.46875 14.796875 0.46875 Z M 14.796875 0.46875 "/></g></g></g><g fill="#000000" fill-opacity="1"><g transform="translate(202.611014, 84.04341)"><g><path d="M 2.03125 0 L 2.03125 -50.109375 L 12.359375 -50.109375 L 12.359375 0 Z M 2.03125 0 "/></g></g></g><g fill="#000000" fill-opacity="1"><g transform="translate(214.961247, 84.04341)"><g><path d="M 1.96875 -45.296875 L 1.96875 -52.375 L 12.125 -52.375 L 12.125 -45.296875 Z M 1.96875 0 L 1.96875 -42.453125 L 12.125 -42.453125 L 12.125 0 Z M 1.96875 0 "/></g></g></g><g fill="#000000" fill-opacity="1"><g transform="translate(227.021558, 84.04341)"><g><path d="M 2.03125 -42.453125 L 11.953125 -42.453125 L 11.953125 -37.53125 C 12.410156 -39.34375 13.203125 -40.691406 14.328125 -41.578125 C 15.453125 -42.472656 17.035156 -42.921875 19.078125 -42.921875 C 20.742188 -42.921875 22.1875 -42.539062 23.40625 -41.78125 C 24.625 -41.03125 25.484375 -40 25.984375 -38.6875 C 26.835938 -40.15625 27.785156 -41.226562 28.828125 -41.90625 C 29.867188 -42.582031 31.316406 -42.921875 33.171875 -42.921875 C 36.492188 -42.921875 38.800781 -41.90625 40.09375 -39.875 C 41.394531 -37.84375 42.046875 -34.894531 42.046875 -31.03125 L 41.9375 0 L 31.71875 0 L 31.71875 -31.203125 C 31.71875 -33.953125 31.023438 -35.328125 29.640625 -35.328125 C 28.671875 -35.328125 27.972656 -34.851562 27.546875 -33.90625 C 27.117188 -32.957031 26.90625 -31.828125 26.90625 -30.515625 L 26.90625 0 L 16.765625 0 L 16.765625 -31.203125 C 16.765625 -32.398438 16.640625 -33.363281 16.390625 -34.09375 C 16.140625 -34.832031 15.609375 -35.203125 14.796875 -35.203125 C 13.742188 -35.203125 13.003906 -34.6875 12.578125 -33.65625 C 12.160156 -32.632812 11.953125 -31.410156 11.953125 -29.984375 L 11.953125 0 L 2.03125 0 Z M 2.03125 -42.453125 "/></g></g></g><g fill="#000000" fill-opacity="1"><g transform="translate(268.943801, 84.04341)"><g><path d="M 18.4375 0.46875 C 15.65625 0.46875 13.664062 -1.195312 12.46875 -4.53125 L 12.46875 0 L 2.03125 0 L 2.03125 -50.109375 L 12.46875 -50.109375 L 12.46875 -40.421875 C 14.09375 -42.085938 15.988281 -42.921875 18.15625 -42.921875 C 21.4375 -42.921875 23.789062 -41.941406 25.21875 -39.984375 C 26.65625 -38.035156 27.375 -35.222656 27.375 -31.546875 L 27.375 -11.078125 C 27.375 -7.597656 26.640625 -4.800781 25.171875 -2.6875 C 23.703125 -0.582031 21.457031 0.46875 18.4375 0.46875 Z M 15.015625 -7.421875 C 15.710938 -7.421875 16.207031 -7.644531 16.5 -8.09375 C 16.789062 -8.539062 16.960938 -9.097656 17.015625 -9.765625 C 17.078125 -10.441406 17.109375 -11.5 17.109375 -12.9375 L 17.109375 -30.625 C 17.109375 -32.132812 16.972656 -33.253906 16.703125 -33.984375 C 16.429688 -34.722656 15.851562 -35.09375 14.96875 -35.09375 C 14 -35.09375 13.335938 -34.722656 12.984375 -33.984375 C 12.640625 -33.253906 12.46875 -32.171875 12.46875 -30.734375 L 12.46875 -12.9375 C 12.46875 -11.082031 12.617188 -9.695312 12.921875 -8.78125 C 13.234375 -7.875 13.929688 -7.421875 15.015625 -7.421875 Z M 15.015625 -7.421875 "/></g></g></g><g clip-path="url(#a15b8c5d10)"><g clip-path="url(#6764de834f)"><path fill="#000000" d="M 298.675781 73.109375 L 311.167969 73.109375 L 311.167969 85.601562 L 298.675781 85.601562 Z M 298.675781 73.109375 " fill-opacity="1" fill-rule="nonzero"/></g></g></svg>